<?xml version="1.0" encoding="UTF-8" standalone="no"?>
<!DOCTYPE svg PUBLIC "-//W3C//DTD SVG 1.1//EN" "http://www.w3.org/Graphics/SVG/1.1/DTD/svg11.dtd">
<svg width="100%" height="100%" viewBox="0 0 128 128" version="1.1" xmlns="http://www.w3.org/2000/svg" xmlns:xlink="http://www.w3.org/1999/xlink" xml:space="preserve" xmlns:serif="http://www.serif.com/" style="fill-rule:evenodd;clip-rule:evenodd;stroke-linejoin:round;stroke-miterlimit:2;">
    <g id="레이어_2">
        <path d="M128,32C128,14.339 113.661,0 96,0L32,0C14.339,0 0,14.339 0,32L0,96C0,113.661 14.339,128 32,128L96,128C113.661,128 128,113.661 128,96L128,32Z" style="fill:rgb(168,149,191);"/>
        <rect x="32" y="32" width="64" height="64" style="fill:none;"/>
        <g transform="matrix(1.49704,-0.000532904,0.000532904,1.49704,-38.9123,-40.4396)">
            <path d="M104.629,51.834C104.629,41.924 96.584,33.878 86.674,33.878L50.764,33.878C40.854,33.878 32.809,41.924 32.809,51.834L32.809,87.744C32.809,97.653 40.854,105.699 50.764,105.699L86.674,105.699C96.584,105.699 104.629,97.653 104.629,87.744L104.629,51.834Z" style="fill:rgb(235,235,235);"/>
        </g>
        <g transform="matrix(1.29763,-0.000461919,0.000461919,1.29763,-25.2041,-26.5279)">
            <path d="M104.629,51.834C104.629,41.924 96.584,33.878 86.674,33.878L50.764,33.878C40.854,33.878 32.809,41.924 32.809,51.834L32.809,87.744C32.809,97.653 40.854,105.699 50.764,105.699L86.674,105.699C96.584,105.699 104.629,97.653 104.629,87.744L104.629,51.834Z" style="fill:rgb(169,152,190);"/>
        </g>
        <g transform="matrix(4.51817,0,0,5.05916,-63.7065,-292.615)">
            <text x="24.452px" y="74.784px" style="font-family:'Arial-BoldMT', 'Arial', sans-serif;font-weight:700;font-size:12px;fill:white;">B</text>
        </g>
    </g>
</svg>
