<?xml version="1.0" encoding="UTF-8" standalone="no"?>
<!DOCTYPE svg PUBLIC "-//W3C//DTD SVG 1.1//EN" "http://www.w3.org/Graphics/SVG/1.1/DTD/svg11.dtd">
<svg width="100%" height="100%" viewBox="0 0 128 128" version="1.1" xmlns="http://www.w3.org/2000/svg" xmlns:xlink="http://www.w3.org/1999/xlink" xml:space="preserve" xmlns:serif="http://www.serif.com/" style="fill-rule:evenodd;clip-rule:evenodd;stroke-linejoin:round;stroke-miterlimit:2;">
    <g id="레이어_2">
        <path d="M128,32C128,14.339 113.661,0 96,0L32,0C14.339,0 0,14.339 0,32L0,96C0,113.661 14.339,128 32,128L96,128C113.661,128 128,113.661 128,96L128,32Z" style="fill:rgb(51,51,51);"/>
        <path d="M64,37.33C49.374,37.352 37.351,49.394 37.351,64.02C37.351,75.467 44.715,85.697 55.57,89.33C56.91,89.55 57.33,88.72 57.33,88L57.33,83.49C49.95,85.09 48.33,79.92 48.33,79.92C47.11,76.83 45.33,76 45.33,76C42.91,74.35 45.52,74.4 45.52,74.4C47.23,74.639 48.737,75.655 49.6,77.15C51.92,81.15 55.84,80 57.36,79.36C57.479,78.009 58.075,76.743 59.04,75.79C53.2,75.12 47,72.83 47,62.67C46.944,59.997 47.927,57.404 49.74,55.44C48.941,53.157 49.038,50.654 50.01,48.44C50.982,46.226 52.25,47.72 57.34,51.16C61.709,49.987 66.311,49.987 70.68,51.16C75.76,47.68 78,48.4 78,48.4C78.972,50.614 79.069,53.117 78.27,55.4C80.089,57.376 81.069,59.985 81,62.67C81,72.85 74.76,75.09 68.82,75.76C70.116,77.06 70.787,78.859 70.66,80.69L70.66,88C70.66,88.72 71.08,89.57 72.44,89.33C83.295,85.697 90.659,75.467 90.659,64.02C90.659,49.386 78.624,37.342 63.99,37.33L64,37.33Z" style="fill:white;fill-rule:nonzero;"/>
        <rect x="32" y="32" width="64" height="64" style="fill:none;"/>
    </g>
</svg>
