<?xml version="1.0" encoding="UTF-8" standalone="no"?>
<!DOCTYPE svg PUBLIC "-//W3C//DTD SVG 1.1//EN" "http://www.w3.org/Graphics/SVG/1.1/DTD/svg11.dtd">
<svg width="100%" height="100%" viewBox="0 0 128 128" version="1.1" xmlns="http://www.w3.org/2000/svg" xmlns:xlink="http://www.w3.org/1999/xlink" xml:space="preserve" xmlns:serif="http://www.serif.com/" style="fill-rule:evenodd;clip-rule:evenodd;stroke-linejoin:round;stroke-miterlimit:2;">
    <g id="레이어_2">
        <path d="M128,32C128,14.339 113.661,0 96,0L32,0C14.339,0 0,14.339 0,32L0,96C0,113.661 14.339,128 32,128L96,128C113.661,128 128,113.661 128,96L128,32Z" style="fill:rgb(23,206,58);"/>
        <path d="M53.26,66.33L57.98,66.33L55.62,60.71L53.26,66.33Z" style="fill:white;fill-rule:nonzero;"/>
        <path d="M89.5,47L38.87,47C35.304,47 32.37,49.934 32.37,53.5L32.37,75.24C32.37,78.806 35.304,81.74 38.87,81.74L89.5,81.74C93.066,81.74 96,78.806 96,75.24L96,53.46C95.978,49.909 93.051,47 89.5,47ZM62.35,73.61C61.539,73.607 60.813,73.088 60.55,72.32L59.41,69.64L51.91,69.64L50.71,72.44C50.44,73.146 49.756,73.614 49,73.61C48.997,73.61 48.993,73.61 48.99,73.61C48.046,73.61 47.27,72.834 47.27,71.89C47.27,71.89 47.27,71.89 47.27,71.89C47.279,71.611 47.351,71.338 47.48,71.09L53.42,57.67C53.764,56.765 54.642,56.167 55.61,56.18L55.83,56.18C56.786,56.162 57.656,56.748 58,57.64L63.9,71.06C64.031,71.31 64.1,71.588 64.1,71.87C64.1,72.825 63.315,73.61 62.36,73.61C62.357,73.61 62.353,73.61 62.35,73.61ZM80.07,71.55L79.99,71.61C78.367,72.98 76.31,73.732 74.186,73.732C69.35,73.732 65.334,69.834 65.19,65C65.189,64.949 65.189,64.898 65.189,64.847C65.189,60.096 69.098,56.187 73.849,56.187C73.926,56.187 74.003,56.188 74.08,56.19C76.117,56.105 78.125,56.715 79.77,57.92C80.231,58.272 80.501,58.82 80.5,59.4C80.5,60.404 79.674,61.23 78.67,61.23C78.269,61.225 77.879,61.1 77.55,60.87C76.562,60.081 75.334,59.651 74.07,59.65C71.346,59.678 69.121,61.926 69.121,64.65C69.121,64.75 69.124,64.85 69.13,64.95C69.124,65.05 69.121,65.151 69.121,65.251C69.121,67.985 71.337,70.25 74.07,70.31C75.416,70.34 76.726,69.874 77.75,69C78.062,68.743 78.453,68.602 78.857,68.602C79.812,68.602 80.597,69.388 80.597,70.342C80.597,70.812 80.407,71.263 80.07,71.59L80.07,71.55Z" style="fill:white;fill-rule:nonzero;"/>
    </g>
</svg>
